<svg width="572" height="560" viewBox="0 0 572 560" fill="none" xmlns="http://www.w3.org/2000/svg">
<g clip-path="url(#clip0_401_2)">
<path d="M451.524 399.472C517.585 399.472 571.138 345.919 571.138 279.858C571.138 213.797 517.585 160.244 451.524 160.244C385.462 160.244 331.909 213.797 331.909 279.858C331.909 345.919 385.462 399.472 451.524 399.472Z" fill="#2B5EBA"/>
<path d="M300.372 115.353C332.226 115.353 358.048 89.53 358.048 57.6763C358.048 25.8226 332.226 -7.62939e-06 300.372 -7.62939e-06C268.518 -7.62939e-06 242.696 25.8226 242.696 57.6763C242.696 89.53 268.518 115.353 300.372 115.353Z" fill="#2B5EBA"/>
<path d="M300.372 560C332.226 560 358.048 534.177 358.048 502.324C358.048 470.47 332.226 444.647 300.372 444.647C268.518 444.647 242.696 470.47 242.696 502.324C242.696 534.177 268.518 560 300.372 560Z" fill="#2B5EBA"/>
<path d="M273.949 366.23C277.358 367.367 281.052 367.935 284.745 367.935C304.634 367.935 320.829 351.74 320.829 331.852C320.829 311.963 304.634 295.769 284.745 295.769C271.96 295.769 260.879 302.303 254.345 312.248V312.532C253.208 313.952 252.356 315.657 251.787 317.362C212.011 387.539 132.173 340.66 132.173 340.66C119.104 332.988 104.045 328.442 87.5663 328.442C39.55 328.442 0.625609 367.367 0.625609 415.383C0.625609 463.399 39.55 502.324 87.5663 502.324C121.092 502.324 150.357 483.288 164.563 455.444V455.16C167.12 450.33 169.109 445.216 170.813 439.817C212.295 344.637 273.949 366.23 273.949 366.23ZM253.492 238.661C255.197 241.786 257.47 244.911 260.027 247.468C274.233 261.674 296.963 261.674 310.884 247.468C325.09 233.262 325.09 210.533 310.884 196.611C301.793 187.519 289.291 184.394 277.926 186.951H277.642C275.938 187.235 273.949 187.803 272.244 188.656C194.395 210.249 171.097 120.467 171.097 120.467C167.404 105.693 159.733 91.7707 148.368 80.4059C114.274 46.3115 59.4384 46.3115 25.6281 80.1218C-8.1821 113.932 -8.46622 169.051 25.6281 202.861C49.4942 226.728 83.3045 233.831 113.421 224.17H113.705C118.819 222.466 123.934 220.193 129.048 217.636C225.364 179.564 253.492 238.661 253.492 238.661Z" fill="#2B5EBA"/>
</g>
<defs>
<clipPath id="clip0_401_2">
<rect width="571.195" height="560" fill="white"/>
</clipPath>
</defs>
</svg>
